<?xml version="1.0" encoding="utf-8"?>
<!-- Generator: Adobe Illustrator 21.0.2, SVG Export Plug-In . SVG Version: 6.00 Build 0)  -->
<svg version="1.1" id="Ebene_1" xmlns:amcharts="http://amcharts.com/ammap"
	 xmlns="http://www.w3.org/2000/svg" xmlns:xlink="http://www.w3.org/1999/xlink" x="0px" y="0px" viewBox="0 0 605 821"
	 style="enable-background:new 0 0 605 821;" xml:space="preserve">
<style type="text/css">
	.st0{fill:#CCCCCC;stroke:#FFFFFF;stroke-width:0.5;}
</style>
<defs>
	
	
		<amcharts:ammap  bottomLatitude="47.269299" leftLongitude="5.864765" projection="mercator" rightLongitude="15.043380" topLatitude="55.051693">
		</amcharts:ammap>
</defs>
<g>
	<path id="DE-BW" class="st0" d="M189,760.4l0.6,2.1l-3.5,0.1L189,760.4z M214.4,580.9l8.7-0.3l4.1-7.3l6.5,1l0.8-6.5l-2.1-1.9
		l-1.8,2.6l1-2.4l-5-1l1.2-2.9l11.9-2l3.8,4.4l0.4-3.8l5.2-0.9l-1.5,8.6l1.8,1.7l3.6-4l1.7,3.9l4-4.2l4.6,11.8l-3.9,5.5l3,1l3.6-3.6
		l0.8,9.5l5.8-0.1l3-6l3.7,3.6l-1.8,6l4.3,5.1l-3.5,1.6l3.2,9.7l-3,2.1l0.9,5.7l7.9,4.9l-2.5,4.6l2.6,0.9l0,5l6.2,1.2l6.9,10.8
		l-2.2,1.1l1.9,4.5l-2.4,10.8l5,5.7l-5.4,2.5l1.7-3l-1.9-0.4l-3,4.3l-5.9-4.8l-0.9,3.6l4.3,5.4l-0.8,8.2l-4.8,1.1l-4.1,5.1l-4.1-1.9
		l-4.4,1.8l-4.2,7.7l6,9.2l4.5,16.2l-3.7,23.3l3.8,5.4l-4.7,2.1l3.5,2.6l0.8,7.8l-3.5,3.6l-3.2-4.4l-4,3.3l-7.1-2.5l-6.4,6.2
		l-7.3,0.9l-2.5,5.2l0,0l-32.5-12.4l-12.4,3l-5.5-8.5l-2.4,1.8l1.4,4.2l-4.2-1.8l-0.3-6.7l-1.9,0.8l-2.5-4.2l-1.6,3.9l-0.7-3.8
		l-3.2-0.9l0.6,2.5l-5.9,1.1l-5,9.1l4.4,3.3l8.2-3.2l1.5,2.3l-3.3,5l-3.6-3.6l-4,3l1.9,2.3l-6.6,1.1l-11.3-5.2l-7.4,6l-9.4,1.3
		l-3.2-4.1l-4.4-0.1l-8.3,5.2l-3.7-2.7l3.3-0.4l0.4-3.3l-6.5,1l-5-10.2l2.3-3.4l0.6-13.8l4.2-8.8l-3.4-5.9l0.5-8.2l7.4-17.3l3.3-2.4
		l-0.8-6.4l6.8-23.7l8.5-11.2l7.5-4.4l9.1-15.8l0,0l8.1-13.1l2-13l6.2-5.9l-2.4-2.9l3.6-10.8l-4.1-1.5l-1.3-13.1l0,0l3.4,0l5.5,6.8
		l3.5-2.6l-1.3-6.8l6.2-1.3l0.6,8.6l7.7,1.1l0.6,3.2l4.3-1.1l-1.4,3.5l-3.3-0.1l-1.5,5.7l3.1,1.5l6.4-5.9l0.1-4.7l11.1-1.3l-3.4-4.7
		L214.4,580.9z"/>
	<path id="DE-BY" class="st0" d="M274.2,488l4.3-4.7l2.2,2.1l3.9-1.1l1.8,4.3l6.3,1.7l4.1,10l3.6-0.8l2.5,4.6l3.4-0.9l3.5,3
		l0.5,10.3l7,2.5l0.9-4.6l7.3,0.7l-0.1-3.1l-8.3-4.5L317,505l7.6-4.6l6.6,0l3.1,4.4l8.3-1.9l2.7,3.6l-0.8,4.5l6.7,1.7l2.1-9.1
		l-2.3-11.8l2.8,0.3l3.5-4.5l5.4,1l-0.7,6.7l1.4,2.4l2.5-1l2.5,5.5l16.4-4.4l2.9,3l6.3-3.4l0,0l3.8,3.5l-0.4,3.8l7.9,3.3l0,0
		l2.5,4.2l-3.1,2.6l7.9,8l-1,5.9l4.8,3.3l-0.9,1.8l14.6,7.6l-0.8,4.5l4.4,1.5l-4.8,13.2l-4.4,4.3l7.5,5.5l0.4,6.7l2.1-0.2l1.9,8
		l3.5,1.4l0.8,8.7l6.4,3.9l1.5,4.7l10.4,0.3l5.4,3.9l9.6,16.3l7,1.8l6.6,6.3l0.6,6.5l5.9,4.4l2.3-3.2l6.2,2.4l2.7,6.7l4.2-0.6
		l6.5,11.1l-2.9,5.4l2.7,1.6l-0.9,8.1l-5.8,9.6l-14.2-7.2l-4.5,3v12.2l-6.7,10l-19.9,6.5l-16.8,12.5l0.3,5.1l7.1,10.4l4.1,1.9
		l4.2,8.9l-6.1,11.9h7l4,3.5l-2.2,18.4l-2.8,2.7l-13.1-8.7l-1-2.4l2.8-2.9l-4.2-3.7l1.5-2.1l-11.4,0.1l-1.9,3.8l-5,0.7l-3.7-6.6
		l-11.8,1.5l-0.2-6l-5.7,4l2.5,8.8l-12.3-1.8l-10.4,4.1l-13.3-1.2l-4.1,7.5l-8.9,0.2l-3.1,3.8l2.4,2.6l-5.4-0.4l-4.4,4.9l-2.8,0.2
		l1.9-3.1l-3-0.5l-5.7,3.5l-8.9-0.2l-2.6-7.7l-4.2-0.1l3.1-2.9l-1.9-2.3l-7,2.2l-11.4-5.1l-1.7,3.3l-3.1-0.1l-4.3-1.9l1.6-2.8
		l-2.7,0.1l2.4,14.2l-2.5,4.8l-6.7,7.1l-9.8,3.3l3.9-10.5l-3.4-1l-5.4,3.5l-0.3-9.2l-5.9-2.8l-1.9-6l-6.2,1.7l-3.8-1.9l-0.9-4.4
		l-4.1,5.8l-8.7-1.3l0,0l2.5-5.2l7.3-0.9l6.4-6.3l7.1,2.5l4-3.3l3.2,4.4l3.5-3.6l-0.8-7.8l-3.5-2.6l4.7-2.1l-3.8-5.4l3.7-23.3
		l-4.5-16.2l-6-9.2l4.2-7.7l4.4-1.8l4.1,1.9l4.1-5.1l4.8-1.1l0.8-8.2l-4.3-5.4l0.9-3.6l5.9,4.8l3-4.3l1.9,0.5l-1.7,3l5.3-2.5l-5-5.7
		l2.4-10.8l-1.9-4.5l2.2-1.1l-7-10.8l-6.2-1.2l0-5l-2.6-0.9l2.5-4.6l-7.9-4.9l-0.9-5.7l3-2.1l-3.2-9.7l3.5-1.6l-4.3-5.1l1.8-6
		l-3.7-3.6l-3,6l-5.8,0.1l-0.8-9.5l-3.6,3.6l-3-1l3.9-5.5l-4.6-11.8l-4,4.2l-1.7-3.9l-3.6,3.9l-1.8-1.7l1.5-8.6l-5.2,0.9l-0.4,3.8
		l-3.8-4.4l-11.9,2l-1.2,2.9l5,1l-1,2.4l1.8-2.6l2.1,1.9l-0.8,6.5l-6.5-1l-4.1,7.3l-8.7,0.3l0,0l-2.3-4.1l5.1-11.9l-2.6-1.8l1.7-2.3
		l-2.8-0.9l-0.3-5.4l-3.2,0.3l-1.2-13.2l2-1.5l-1.3-4.6l-3.3-0.8l1.3-4.3l7.8-3.4l2.1,3.5l4.4-5.7l9.5,1.8l4.1,4.6l5-1l-0.8-14.6
		l10.5,0.8l-0.6-3.8l5.9-3.8l1-11.5l8.9,2.1l7.5-6.3L274.2,488z"/>
	<path id="DE-BE" class="st0" d="M493.1,267.7L493.1,267.7L493.1,267.7l3,2.5l-0.9,5.5l9.4,6.5l-2.9,6.1l9.4,3l-7.1,10.9l-0.3-4
		l-10.5-2l-0.9-2.5l-3,1l0,3.6l-7.8-4.2l-10.8,2.7l-2.3-2.3l4.9-10.2l-3.2-0.8l0.7-7.3l5.6-0.1l0.3-4.2l2.7,0.1l1.2-3.5l4.9,3.9
		l7.1-2.9l-0.7-1.9l0,0l0.9-0.5l0,0l0.4,0.1l0,0L493.1,267.7z"/>
	<path id="DE-BB" class="st0" d="M352.3,219.9l8,1.2l1.8-3.2l7.1,1.7l1.2-9l7.4-3.8l4.1,2.8l5.5-0.8l-1.4-3l4.1,0.5l10.4-5.5
		l1.5-7.6l7.9,3.5l3.9-2.1l1.8,3.7l8.5,2.5l3.3,5.4l13.8-0.4l1.4,2.9l4.6,0.3l0.9,3.8l12.5-1.4l-1.4,2.8l4,0.9l9.2-8.8l5.2,3.6
		l4.4-6.8l6.7,3.4l2-5.3l3,0.6l2.4-2.9l1.8-8.4l4.8-1.2l5.6-7.6l6.3-0.4l-2.4-3.1l1.2-4.8l5.4,5.8l2.5,8.9l20.6-0.7l-0.9,7.4
		l-8.2,10.4l10.4,0.3l3.6-5.5l6-2.1l0,0l2.2,7.2l-4.5,6.7l-0.8,12.8l-14,12.4l1,8.1l-2.4,4.9l14.6,9.2l18.3,18.7l-2.2,4l1.9,4.5
		l-6.3,10l3.7,12.6l7.7,3.9l-2,12.5l4.9,5.3l-4.1,17l-6.6,7.7l10.6,17.2l-1.7,8l0,0l-2.1-1.6l-1.1,4.6l-4.1,0.3l-3-3.1l-11.4,3.9
		l-3.5,3.9l-12.5-4.1l-3.2,6.8l-3.5,0.1l1.8,3.1l-4.1,7.3l-2.5-2.4l-11.8,3.5l-14.7-0.7l-9.2-8.5l-1.3,2.9l-3.5-1.2l-3.6,5.3
		l-3.3-1.1l-2.5-3.2l2-9.8l-4.1-4.6l1.1-2.5l-6.9-5.4l0,0l8.5-7.2l-3-16.7l-6.2,0.9l0.3-3l-4.6,0l-1-3.7h-6.8l-0.5-3.4l-4.1,0.5
		l-6.9-5.1l-3.8,3.1l-4.6-0.4l-3.9-4.9l-2.8,1.8L413,319.8l5-6.1l-3.3-2.5l3.9-9.8l-2.2-7.1l3.7-6.6l-5.6-4.6l-3.6,2.7l0.3-3.9
		l-2.9,0.2l1.6-10l3.8-0.4l-2-9.3l3.8-9.1l-1.5-5.9l-2.5-1.8l-4.4,2.7l-0.1-4.3l-9.2,1.9l-9.4-3.6l0.6-4.5l-6.5-3.9l-3,1.2l-1.1-3.3
		l-3.2-0.4l0.9-2.8l-2.5,0.2l0,0l-9.3-4.5l-7.3,2.4L352.3,219.9z M492.8,269.5l-7.1,2.9l-4.9-3.9l-1.2,3.5l-2.7-0.1l-0.3,4.2
		l-5.6,0.1l-0.8,7.3l3.2,0.8l-4.9,10.2l2.3,2.3l10.8-2.7l7.8,4.2l0-3.5l3-1l0.9,2.5l10.5,2l0.3,4l7-10.9l-9.4-3l2.9-6.1l-9.4-6.5
		l0.9-5.5l-2.9-2.5l0,0l0.2-0.6l0,0l-0.4-0.1l0,0l-0.9,0.5L492.8,269.5z"/>
	<path id="DE-HB" class="st0" d="M175.3,208.8l0.7-0.1l0,0l6.2,1.7l-1.2,2.2l2.8,2.1l13.1,0.8l2.2,3.5l5.2-2.2l2.5,2.7l-2.2,1.1
		l2.6,2l-0.6,5.4l-2.9,3.4l-4.4-2.8l-2.8,2.1l-3.2-3.5l-3.4,1.5l-6.3-13.5l-6.9-3.2l0,0l0,0l0,0l-1.3-3.2l0,0L175.3,208.8z
		 M177.3,168.4l8.9-0.4l-2.7,3.8l1,8.5l-3.7,1l-1.2-4l0,0l1.4-1.8L177.3,168.4z"/>
	<path id="DE-HH" class="st0" d="M254.3,173.6l2.6-8l4.1,4.9l4.5-7.1l4.6,0.6l1.3-3.7l4.2,0.3l1-4.6l5.6-2l1.5,1.6l-3.1,4.9l5,4.7
		l-1.5,5.1l-3.1,1.4l0.7,5.4l3.1,0.2l7.3,7.7l-1.1,1.6l0,0l-4.4,4h-4.1l-7.8-7.2l-4.3,5.1l-4.4,0.3l-0.8-4.5l-2.7,2.8l-3.5-3.5
		l-2.1-9.7L254.3,173.6z"/>
	<path id="DE-HE" class="st0" d="M236.6,373.6l11.1,1.1l4.1,6l-3.8-0.7l1.1,3.3l-2.6-1l-1.3,4.5l3.6,4.7l0.1,5.3l-4.2,1.7l-0.6,4
		l-2.4-0.5l1.9,2.3l11,5l2.5-4.2l-2.1,1.8l-2.4-4.5l6.2-2.2l-0.2-2.3l4.4,3.7l-0.9-4.4l3.3-0.3l1.7,4.3l0,0l2.8,9.2l5.3,0.6l0.8,5.3
		l10.7,4.1l-2.4,7.4l-2.1-4.1l-2.9,1.4l3.5,2.3l-2.1,5.7l4.1,2.5l-0.1,2.8l-10.5-0.5l-1.3,3.2l2.8,3.7l-7.2,0.3l2.4,1.1l-1,2.4
		l2.6-1.4l3.1,4l-2.1,4.8l-4.8,1.4l-4.9,18.1l5.3,1.1l-0.4-3.8l6.4-0.4l1.8,4.9l-2.9,1.2l0.3,9.5l0,0l-1.5,4.9l-7.5,6.3l-8.9-2.1
		l-1,11.5l-5.9,3.8l0.6,3.8l-10.5-0.8l0.8,14.6l-5,1l-4.1-4.6l-9.5-1.8l-4.4,5.7l-2.1-3.5l-7.8,3.4l-1.3,4.3l3.3,0.8l1.3,4.6l-2,1.5
		l1.2,13.2l3.2-0.3l0.3,5.4l2.8,0.9l-1.7,2.3l2.6,1.8l-5.1,11.9l2.3,4.1l0,0l-2,1.2l3.4,4.7l-11.1,1.3l-0.1,4.7l-6.4,5.9l-3.1-1.5
		l1.5-5.7l3.3,0.1l1.4-3.5l-4.3,1.1l-0.6-3.2l-7.7-1.1l-0.6-8.6l-6.2,1.3l1.3,6.8l-3.5,2.6l-5.5-6.8l-3.4,0l0,0l-4-10.6l7.6-6.9
		l-3.5-0.6l-2.8-5.3l-3.7-15.1l-8.8-5.8l-19,6.3l-7.1-8.5l4.1-2.6l0.9-4.3l5,2.4l0.2-4.1l-3.1-2.4l1.6-3.5l5-3.4l2.8,2.2l0.2-5.5
		l4.5,1.1l0.8-3.8l-3.8-7.5l-6.1-3.7l3-4.2l-1-7.2l3.1-3.3l3.8,2.4l2.1-1.7l-0.7-13.5l0,0l2.7-4.9l-2.1-5.6l8.5-9.2l5.9,2l6.4-5.8
		l-0.1-4.7l5-5.4l-2.2-6.1l13.9-3l-1.5-2.8l4.5-7.3l-2.9-6.6l-8.1,2.7l-2.4-3.1l4-6l4.7-4.1l15.6-1.3l0.6-3.9l-3.6-5.5l8.1-3.7
		l4.6,2.3l0.3,5.2l7.7-1.5l9.9-13.5l-2.2-2.4L236.6,373.6z"/>
	<path id="DE-MV" class="st0" d="M514.3,107.8l4.2,7.3l9.2,5.2l13.4,13.4l-2.7,1.6l1.8,5l-11.2-0.8l-6.2,3.3l-0.7-3.3l-1.1,3.4
		l-5.4-0.8l7.1-6.3l-1.9-8.6l3.5,0l-0.4,5.9l1.6-2.9l3.7,2.1l0.5-4.6l-4.9-8.6l-3.9,0.1l1,5.1l-0.3-2l-4,3.7l-0.2-5.2l-5.6,3.1
		l2.7-9.6l-4-5.5L514.3,107.8z M443.9,79.3l1.6,1.4l-3.4-0.1L443.9,79.3z M432.9,73.5l2,3.1l22.5,0.9l0.6,2l-7.9,2l-10.5-1.8
		l-6.5,6.6l10.9-5.1l-2,4.4l1.5-3.1l2.2,3.1l3.3-2.8l1.6,5.7l7.1-7.6l6.8-2.5l-0.3,4.2l4.3,3.2l0.8,9.4l4.8,1.3l-2.2,1.8l2.7-1.4
		l6.5,3.4l2.3,5.5l2.8,0.2l-3.4,2.4l6.4-1.6l-2.2,3.2l1.8-1.3l3.7,7.5l2.1,0.1l-0.6-4.2l14-4.9l-0.8,2.2l6.6,5.5l-3.7,7.6l10.9,11.5
		l-5.7,4.9l-0.5,3.6l18.2,11.1l10.5-0.9l-3.3,4.9l4.2,1.7l8.4,38.1l0,0l-6,2.1l-3.6,5.5l-10.4-0.3l8.2-10.4l0.9-7.4l-20.6,0.7
		l-2.5-8.9l-5.4-5.8l-1.2,4.8l2.4,3.1l-6.3,0.4l-5.6,7.6l-4.8,1.2l-1.8,8.4l-2.4,2.9l-3-0.6l-2,5.3l-6.7-3.4l-4.4,6.8l-5.2-3.6
		l-9.2,8.8l-4-0.9l1.4-2.8l-12.5,1.4l-0.9-3.8l-4.6-0.3l-1.4-2.9l-13.8,0.4l-3.3-5.4l-8.5-2.5l-1.8-3.7l-3.9,2.1l-7.9-3.5l-1.5,7.6
		l-10.4,5.5l-4.1-0.5l1.4,3l-5.5,0.8l-4.1-2.8l-7.4,3.8l-1.2,9l-7.1-1.7l-1.8,3.2l-8-1.2l0,0l-5.3-1.5l0.8-4.6l-6.8-3.6l-6.5-12.7
		l-4.4-1.6l-5.3,4.7l-8.6-7l-6.6,0.7l0,0l2.4-9.6l12.3-6.4l-0.2-6.6l5.6,0.4l2.6-8.3l-1.9-5.5l-4.6-0.3l-5.9-5.4l0.9-13l6.9-5.6
		l2,2.9l3.5-1l-4.6-1.6l0.7-3.6l0,0l8.6-5.4l9-1l5.1,3.4l-0.1,5.2l5-2.6l7.9,6.8l1.5-7.6l-2.4,0.9l-0.1-4.3l-0.9,4l-2.8-0.4
		l-0.1-3.9l6.7-2.2l0,6l1.9-7l3.5-0.3l3.3-6.1l-1.4-1.4l-4.7,5.9l-0.3-2.8l9.7-8.5l10.6,0.8l17.7-4.2l3.9-5.8l9.6-6.3L432.9,73.5z
		 M472.1,60.3L467,76.1l2.2-14.5L472.1,60.3z M490.3,51.4l-3.6,5.5l2.8,6.1l13.6-0.7l2.8,2.3l-6.6,12.7l2.5,4.8l3.8,0.4l6,6.5
		l-3.5,7.9l-0.5-3l-3.6-0.1l3.7-3.2l-6,1.1l4.8-3.8L502,90l-2-2.5l-5.2,1.2l-9.5,7.9l0.3,2.5l0.5-1.9l3.4,1.1l-1.6,3.6l-6.5-3.2
		l2,0.6l0.8-3.6l-4.2,2.7l-4.4-1.8l-0.4-2.9l-3.4,1.6l2.9-2l-4.5-3.5l0.8-4.2l8.5-1.4l-3.1-5l-3.9,0.8l1.8-3.6l-3.6,0.9l3.1-4.9
		l3.7,0.8l-1.8,4.1l4.6-3.6l-2.7-0.6l0.2-2.8l-3.9,0.3l-1.6-4.2l6.4-1l3.8,4.5l-0.5-4.2l3.7-3l-1,3.5l2.3-1.2l2.4,7.2l2.5,2.5
		l3.3-1.1l0.5-9.2l-4.2,1.5l-4.8-6.9l-8,6.1l2.6-9.5l-7.9,9.5l5.4-10.9L490.3,51.4z"/>
	<path id="DE-NI" class="st0" d="M68.4,169.1l-6,1.6l1.7,3l-5.7-3.1l6.1-3.8L68.4,169.1z M105.9,154.4l2.3,1.9l-5-0.9L105.9,154.4z
		 M117.2,151.9l3.3,1.5l-10.6,2.3l0.9-3.3L117.2,151.9z M126.4,149.4l6,1.1l-9.4,1.9L126.4,149.4z M137.4,148l4.8,2.2l-7.9-1.2
		L137.4,148z M188,137.5l5.2,6l7.8,1.4l8-1.9l-1-3.6l0,0l13.1-0.6l6.7,2.8l12.2,17.1l2.8,8.3l11.5,6.5l0,0l2.8,0.4l2.1,9.7l3.5,3.5
		l2.7-2.8l0.8,4.5l4.4-0.3l4.3-5.1l7.8,7.2h4.1l4.4-4l0,0l18.3,7.4l0,0l6.6-0.7l8.6,7l5.3-4.7l4.4,1.6l6.5,12.7l6.8,3.6l-0.8,4.6
		l5.3,1.5l0,0l4.5,7l7.3-2.4l9.3,4.5l0,0l-2.7,3.9l-3-0.7l-0.5,6.9l-12,6.6l-19.6-3.5l-4.2,6.2l-11,1.1l2,13.5l1.9-0.3l5.8,11.2
		l3.6-1.5l-2.5,5.9l4.5,7.5l-4,0.2l-0.7,3.4l9,8.9l-5.8,3.5l6.5,11.7l-4.6,3.1l3,2.6l-1,4l-6.5,3.2l1.4,4.8l-16.9,0.7l-8.8,4.7
		l5.7,4.8l-2.4,2l2.3,4.9l-4.6,4.3l-0.2,3.9l8,17.4l0,0l-4,2.2l1.1,6.3l-3.2-2.1l-5.5,2.6l-5.5-3.9l-4,0.5l-4.5,9.6l-4.2,2.4l-2-1.6
		l-3.1,5.6l-5.5,1.4l-1.4-2l-7.5,6.3l0,0l-1.7-4.3l-3.3,0.3l0.9,4.4l-4.4-3.7l0.2,2.3l-6.2,2.2l2.4,4.5l2.1-1.8l-2.5,4.2l-11-5
		l-1.9-2.3l2.4,0.5l0.6-4l4.2-1.7l-0.1-5.3l-3.6-4.7l1.3-4.5l2.6,1l-1.1-3.3l3.8,0.7l-4.1-6l-11.1-1.1l0,0l-4.9-0.4l0-9.6l4.5-5.2
		l0.9-6.9l-8.6,0.7l1-5.5l-4.3-2.5l0.1-4.2l-4.2,1.3l-2.1-2.1l1.2-9.2l-3.8-2.6l1.3-3.6l-9.1-0.6l-1.7-6.2l3.7,1.1l-0.5-4.2l2.6-0.8
		l-7.1-5l10-12.9l-1.8-4.1l2.7-3.4l-2.4-2.2l-3-0.3l-7.4,10.3l-5.2,1.3l-9.5-0.6l-0.3-11.3l-3.2-2.8l-6,3.4l-3.5-1.4l-5.4,7
		l-7.3-1.5l0.9,5.7l8.1,4.3l-0.1,15.3l4.7,3.1l-7,7.6l-7.7-2.5l-6,6.4l-10.2,0.4l-3.3,3.5l-6.1-5l7.8-3.3l1.2-4.9l-7.9-4.3l3.6-6.5
		l-1.6-3.6l3.8-0.7l-3.5-5.8l-14.3-3.7l-1.6-5.4l-5.1-2.3l-2.7,4.5l2.4,1.1l-1.3,4.7l-18.3,11.6l-14.9,2.3l0,0l-2.4-5l3-8.7
		l-5.3-9.8l-3.1,3.4l-11.8-2.8l-3.8-2.5l-1.1-6.9l5.5-1.1l-3.5-6.7l2.5-2.3l19.3,0.6l2.1-21.7l8.3-16.6l-2.4-14l3-4.3l-1.1-6.8
		l2.3-8.1l4-0.2l-18.8-2.3l1.2-20.5l4.2,3.7l-3.7-4l4,2.7l2.5-3.2l-3.4-4l9.9-9.8l7.4-1.8l10.4,1.7l11.4-5.2l0,2.1l6.6-1.2l1.8-2.5
		l-1.6,2.9l13.8-0.1l1.1,7.1l4.6,0.6l3.5,10.8l-7.1,3.3l0.2,3.1l8.8,7.7l4.2-0.1l2.9-5.5l-0.2-6.8l-5.3,0.1l3.4-9.7l3.6-0.1l8.1,6.4
		l3.5-0.6l2.4,3.8l0,0l1.2,4l3.7-1l-1-8.5l2.7-3.8l-8.9,0.4l0,0l-2.5-9.5l4.2-13l4.1-7.1L188,137.5z M175.3,208.7L175.3,208.7
		l1.3,3.2l6.9,3.2l6.3,13.5l3.4-1.5l3.2,3.5l2.8-2.1l4.4,2.8l2.9-3.4l0.6-5.4l-2.6-2l2.2-1.1l-2.5-2.7l-5.2,2.2l-2.2-3.5l-13.1-0.8
		l-2.8-2.1l1.2-2.2l-6.2-1.7L175.3,208.7z"/>
	<path id="DE-NW" class="st0" d="M84.4,312.2l14.9-2.3l18.3-11.6l1.3-4.7l-2.4-1.1l2.7-4.5l5.1,2.3l1.6,5.4l14.3,3.7l3.5,5.8
		l-3.8,0.7l1.6,3.6l-3.6,6.5l7.9,4.3l-1.2,4.9l-7.8,3.3l6.1,5l3.3-3.5l10.2-0.4l6-6.4l7.7,2.5l7-7.6l-4.7-3.1l0.1-15.3l-8.1-4.3
		l-0.9-5.7l7.3,1.5l5.4-7l3.5,1.3l6-3.4l3.2,2.8l0.3,11.3l9.5,0.6l5.2-1.3l7.4-10.3l3,0.3l2.4,2.2l-2.7,3.4l1.8,4.1l-10,12.9l7.1,5
		l-2.6,0.8l0.5,4.2l-3.7-1.1l1.6,6.2l9.1,0.6l-1.3,3.6l3.8,2.6l-1.2,9.2l2.1,2.1l4.2-1.3l-0.1,4.2l4.3,2.5l-1,5.5l8.6-0.7l-0.9,6.9
		l-4.5,5.2v9.6l4.9,0.4l0,0l-7.3,3.3l2.2,2.4l-9.9,13.5l-7.7,1.5l-0.3-5.2l-4.6-2.3l-8.1,3.7l3.6,5.5l-0.6,3.9l-15.6,1.3l-4.7,4.1
		l-4,6l2.4,3.1l8.1-2.7l2.9,6.6l-4.5,7.3l1.5,2.8l-13.9,3l2.2,6.1l-5,5.4l0.1,4.7l-6.4,5.8l-5.9-2l-8.5,9.2l2.1,5.6l-2.7,4.9l0,0
		l-5.4-1.2L142,462l0-7.1l-8.9-3.7l1.4-4.6l-3.7-1.5l-3.6,2.5l1.7,7.4l-6.5,2.4l0.7,4l-5,4.2l-13.9,2.1l-2.5,8l-7.8,1.6l-0.7-2.5
		l-3.5,4.8l-2-1.2L86,481l-2.2-2l-3.7,4.1l-4.3,0.4l0,2.6l-3.1,0.6l1.2,5.9l-2.7,1.6l-3.6-3.9l-3.6,1.9l3.5,11.3l-6.2,2.4l-2.1-3.4
		l-2,2.6l-2.3-4.3l-9.5,5.1l-2.5-5.2l-0.5,6.6l0,0l-4-5.7l2.2-5.6l-1.6-5.3l-7.9-0.7l-3-4.7l5.8-8.4l-5.8,0l-3.6-9.4l-5.2,0.1
		l-0.8-5.5l-3.3-2.3l3.3-1.9l-0.4-3.1l3.5-0.1l1.3-7.5l-4.8-1.3l0.4-5l-8.1,0.9L8,434.6l3.1-1.9l2.9,3.1l3.3-5.6l10.4-6.6l-2.2-1.6
		l1.6-2.2l-5.3,2.3l-0.7-7.1l9.8-12.2l-0.8-15.3l-7.8-9.6l1.6-5.2l-5.4-1.8l0.7-4.4l-5.6-2.2l2.3-4.5l-2.9-4.2l7.6-4.2l6.5,2.5
		l-3-6.3l18.1,7.7l-0.7-4.9l4.9,2.2l13.7-6.6l3,1.9l6.3-9.1l-9.1-5.5l0.4-3.2l2.7-0.5l1.5-4.5l6-0.2l8.2-10.9L84.4,312.2z"/>
	<path id="DE-RP" class="st0" d="M42.4,507.4l0.5-6.6l2.5,5.2l9.5-5.1l2.3,4.3l2-2.6l2.1,3.4l6.2-2.4l-3.5-11.3l3.6-1.9l3.6,3.9
		l2.7-1.6l-1.2-5.9l3.1-0.6l0-2.6l4.3-0.4l3.7-4.1l2.2,2l1.7-2.6l2,1.2l3.5-4.8l0.7,2.5l7.8-1.6l2.5-8l13.9-2.1l5-4.2l-0.7-4
		l6.5-2.4l-1.7-7.4l3.6-2.5l3.7,1.5l-1.4,4.6l8.9,3.7l0,7.1l4.6,7.8l5.4,1.2l0,0l0.7,13.5l-2.1,1.7l-3.8-2.4l-3.1,3.3l1,7.2l-3,4.2
		l6.1,3.7l3.8,7.5l-0.8,3.8l-4.5-1.1l-0.2,5.5l-2.8-2.2l-5,3.4l-1.6,3.5l3.1,2.4l-0.2,4.1l-5-2.4l-0.9,4.3l-4.1,2.6l7.1,8.5l19-6.3
		l8.8,5.8l3.7,15.1l2.8,5.3l3.5,0.6l-7.6,6.9l4,10.6l0,0l1.3,13.1l4.1,1.5l-3.6,10.7l2.4,2.9l-6.2,5.9l-2,13l-8,13.1l0,0l-19.1-8.9
		l-4.3,2.4l-4.6-3.1l-7.7,2.1l-9.3-5.1l-2.2-6.9l-3.7,0.4l0.5-1.9l-5.1,2.5l0,0l-4.6-7.8l6.1-5.4l1-7.4l-7-1.9l-2.5-4.3l3.4-4.1
		l-2.4-10.7l-3.4,1.8l-11.9-7.3l-5.6,0.5l-21.2,11.4l-14.5-3.2l0,0l-1.4-2L44,572l5.5-5.3l0.7-8.5L44,558l-4.4-3.9l-2.5,1.2l-5.6-6
		l-0.7-5l-2.9-0.4l-4.2-10.5l2-10.8l3.2-1.4l-0.9-5.2l6.6-3.2l1.9-5.3l3.2,1.6L42.4,507.4z"/>
	<path id="DE-SL" class="st0" d="M40.8,583.5l14.5,3.2l21.2-11.4l5.6-0.5l11.9,7.3l3.4-1.8l2.4,10.7l-3.4,4.1l2.5,4.3l7,1.9l-1,7.4
		l-6.1,5.4l4.6,7.8l0,0l-4.4,4.2l-8.7-0.5l-3.8-3.4l-2.7,4.1l-1.4-7.6l-6.9-3.2l-5.6,1l-0.2,5.8l-6.2-1.1L59.3,610l-6.6-6.5l2.1-1.8
		l-3.9-3.6l0.8-2.2l-7.9-5l-3.9,0.6L40.8,583.5z"/>
	<path id="DE-SN" class="st0" d="M417.1,430.4l-5.5-5.3l0.3-9.7l-3.4-8.5l3.1-0.9l-3-13.6l3.7-2.9l1.7-7.4l12.2-1.9l1.1-2.8l2.8,1.5
		l8.9-3.2l-1.1,1.6l5.3-5.5l5.1,1.8l4.7-3.8l6.3,4.8l2.4-3.2l4.7,2.3l0,0l6.9,5.4l-1.1,2.5l4.1,4.6l-2.1,9.8l2.5,3.2l3.3,1.2
		l3.6-5.3l3.5,1.2l1.3-2.9l9.2,8.5l14.7,0.7l11.8-3.5l2.5,2.4l4.1-7.3l-1.8-3.1l3.5-0.1l3.2-6.8l12.5,4.1l3.5-3.9l11.4-3.9l3,3.1
		l4.1-0.3l1.1-4.6l2.1,1.6l0,0l0.4,5.7l13.7,5.8l1.7,13l4.1,7l-4.1,20l-11.6,25.8l-11.3-3.8l1.9-7.4l-5.4,1.3l2.1-6.8l-6.4-3.6
		l0.2-2.5l-0.6,2.3l-5.3,0.5l-6.8-3.7l-2.7,6.9l4.2,0.3l-0.9,3l5.5,1.9l-0.6,3.8l-7.7,0.3l-12.1,8.4l-11.3,1.9l-0.1,4.9l-2.7,1.7
		l-21,2.2l-0.1,6.6l-3.7,3.6l-6-4.7l-3.1,7l-4.8-1.2l-3.3,8.9l-10.4-0.6l-0.7,6.1l-4.7,4.5l-8.2-5.6l-0.6,2.8l-1-1.8l-3.8,1.7
		l-1.8,3.5l-2.1-1.9l-10.2,2l-11.6,15.5l0.4,6.8l-3-0.4l0.2-4.4l-3.5-2.5l1-2.5l-3.5-0.2l-1-4.9l-5.3,0.4l0,0l-7.9-3.3l0.4-3.8
		l-3.8-3.5l0,0l-1.8-2.5l3.5-0.5l1-3.3l-6.1-5.1l8.4-9.6l3.5,8.3l1.5-2.5l5.3-0.1l-0.9-5.3l2.6,1.6l0.6-2.5l4.1,0.9l3.4-3.4
		l-3.5-3.1l0.3-4.3l-2.5-0.1l4-4.5l-2.5-3.8l6.1-0.3l1.7-3.1l4.3,1.1l2.7-5.2l10.9-2.5l-3-7.8l-6.4-2.1l-0.3-4.6l-10.6-4
		L417.1,430.4z"/>
	<path id="DE-ST" class="st0" d="M373.5,228.9l2.5-0.2l-0.9,2.8l3.2,0.4l1.1,3.3l3-1.2l6.5,3.9l-0.6,4.5l9.4,3.6l9.2-1.9l0.1,4.3
		l4.4-2.7l2.5,1.8l1.5,5.9l-3.8,9.1l2,9.3l-3.8,0.4l-1.6,10l2.9-0.2l-0.3,3.8l3.6-2.7l5.6,4.6l-3.7,6.6l2.2,7.1l-3.9,9.8l3.3,2.5
		l-5,6.1l13.8,15.8l2.8-1.8l3.9,4.9l4.6,0.4l3.8-3.1l6.9,5.1l4.1-0.5l0.5,3.4h6.8l1,3.7l4.6,0l-0.3,3l6.2-0.9l3,16.7l-8.5,7.2l0,0
		l-4.7-2.3l-2.4,3.2l-6.3-4.8l-4.7,3.8l-5.1-1.8l-5.3,5.5l1.1-1.6l-8.9,3.2l-2.8-1.5l-1.1,2.8l-12.2,1.9l-1.7,7.4l-3.7,2.9l3,13.6
		l-3.1,0.9l3.4,8.5l-0.3,9.7l5.5,5.3l0,0l-2.1,5.3l2.6,1.8l-4.8,8.2l-2-3.7l-10.6,0.9l-8.1-8.9l-8.4,1.3l-5.7-7l-11.7,0.9l-1-9.1
		l-6.6-2.9l7-7.7l-5.1-8.7l-4.9-3l-20.9-0.8l-3-12.2l-3.8-4.2l0.5-2.4l2.3,1.1l-0.5-2.7l-14.1-2.4l0,0l-8-17.4l0.2-3.9l4.6-4.3
		l-2.3-4.9l2.4-2l-5.7-4.8l8.8-4.7l16.9-0.7l-1.4-4.8l6.5-3.2l1-4l-3-2.6l4.6-3.1l-6.5-11.7l5.8-3.5l-9-8.9l0.7-3.4l4-0.2l-4.5-7.5
		l2.5-5.9l-3.6,1.5l-5.8-11.2l-1.9,0.3l-2-13.5l11-1.1l4.2-6.2l19.6,3.5l12.1-6.6l0.4-6.9l3,0.7L373.5,228.9z"/>
	<path id="DE-SH" class="st0" d="M174.8,76.6l2.4,2.4l-1.9,1.7l-2.7-4.3L174.8,76.6z M340.5,68.1l9.4,2.9l5.4,11.1l-7.8-2.2
		l-4.5,2.1l-2.1-4.9l-4.1,0.5l1.6,1.6l-2.5-1.5l1.3-7.3L340.5,68.1z M175.4,67.8l-0.9,4.3l-1.2-5.3L175.4,67.8z M189,65.1l-0.2,6.3
		l-5.4,1.1l-1.8-4.5L189,65.1z M179.4,62.8l1.3,2.2l-4.2-2L179.4,62.8z M168.5,56.2l0.9,2.7l-2.4,0.5l-4.4-6.2L167,48l-1.4,2.7
		L168.5,56.2z M177.5,43.3l3.9,1.2l-1.3,7.3l-10.7-2.4l1.8-5L177.5,43.3z M172,10.7l1.8,0.6l-4.4,0.1l2.8,3.3l-5.6,5.2l1.1,7.6
		l3.6,2.3l11.1-1l2.2-2.6l19.9,1l18.4,5.7l0.9,4.5l2.9,1l3.2,0.1l4.2-4.6l1.7,5.9l11.3-9.7l-0.5,5.1l12,3.8l3.8,4.8l3.4-1.1l0-3.7
		l3.3,2L274,51l-2.5-0.1l2.4,1.9l-0.5,13l-4,5.2l-8.4,3.2l2.1,2.9l16.6-4l4.8,3.2l-4.3,15.8l3.3-1.8l2.7-9.4l6.2-2.4l17.5,7.8
		l6.6,6.4l5.5-0.8l9-7.6l6,1.5l5.6-3.3l0.8,2.8l-4.4,2.1l2.3,16.9L327,116.7l-3.9-2.3l-3.7,6.3l2.1,5.4l5.4,0.7l2.1,3.8l0,0
		l-0.7,3.6l4.6,1.6l-3.5,1l-2-2.9l-6.9,5.6l-0.9,13l5.9,5.4l4.6,0.3l1.9,5.5l-2.6,8.3l-5.6-0.4l0.2,6.6l-12.3,6.4l-2.4,9.6l0,0
		l-18.3-7.4l0,0l1.1-1.6l-7.3-7.7l-3.1-0.2l-0.7-5.4l3.1-1.4l1.5-5.1l-5-4.7l3.1-4.9l-1.5-1.6l-5.6,2l-1,4.6l-4.2-0.3l-1.3,3.7
		l-4.6-0.6l-4.5,7.1l-4.1-4.9l-2.6,8l0,0l-11.5-6.5l-2.8-8.3l-12.2-17.1l-6.7-2.8l-13.1,0.6l0,0l-6.3-6.5l-1.5-7.4l-4.9-2.3l4.8-2.3
		l5,1.2l1.7-2.4l-3.6-8l-4.5,1.3l-3.1-5.7l1.9-12.1l-8.3-0.7l-2,2.4l-6.2-4.6l1.7-5.1l2.2,1.6l3.1-2l-5.4-1.4l0.8-2.1l16.1-2
		l11.4-7.4l-3-0.4l-1.2-4.4l-5.5,6.6l-5.8-1.2l5.5-13.4l-0.8-1.8l-4.2,1.3l2.7-2.3l-10.4-11.7l-6-17.5l-11.8,4l-4.7-3.6L161.9,44
		l1-17.7l6.3-15.7L172,10.7z"/>
	<path id="DE-TH" class="st0" d="M316.2,374.1l14.1,2.4l0.5,2.7l-2.3-1.1l-0.5,2.4l3.8,4.2l3,12.2l20.9,0.8l4.9,3l5.1,8.7l-7,7.7
		l6.6,2.9l1,9.1l11.7-0.9l5.7,7l8.4-1.3l8.1,8.9l10.6-0.9l2,3.7l4.8-8.2l-2.6-1.8l2.1-5.3l0,0l3.4-1.3l10.6,4l0.3,4.6l6.4,2.1l3,7.8
		l-10.9,2.5l-2.7,5.2l-4.3-1.1l-1.7,3.1l-6.1,0.3l2.5,3.8l-4,4.5l2.5,0.1l-0.3,4.3l3.5,3.1l-3.4,3.4l-4.1-0.9l-0.6,2.5l-2.6-1.6
		l0.9,5.3l-5.3,0.1l-1.5,2.5l-3.5-8.3l-8.4,9.6l6.1,5.1l-1,3.3l-3.5,0.5l1.8,2.5l0,0l-6.3,3.4l-2.9-3l-16.4,4.4l-2.5-5.5l-2.5,1
		l-1.4-2.4l0.7-6.7l-5.4-1l-3.5,4.5l-2.8-0.3l2.3,11.8l-2.1,9.1l-6.7-1.7l0.8-4.5l-2.7-3.6l-8.3,1.9l-3.1-4.4l-6.6,0L317,505
		l0.2,2.5l8.3,4.5l0.1,3.1l-7.3-0.7l-0.9,4.6l-7-2.5l-0.5-10.3l-3.5-3l-3.4,0.9l-2.5-4.6l-3.6,0.8l-4.1-10l-6.3-1.7l-1.8-4.3
		l-3.9,1.1l-2.2-2.1l-4.3,4.7l0,0l-0.3-9.5l2.9-1.2l-1.8-4.9l-6.4,0.4l0.4,3.8l-5.3-1.1l4.9-18.1l4.8-1.4l2.1-4.8l-3.1-4l-2.6,1.4
		l1-2.4l-2.4-1.1l7.2-0.3l-2.8-3.7l1.3-3.2l10.5,0.5l0.1-2.8l-4.1-2.5l2.1-5.7l-3.5-2.3l2.9-1.4l2.1,4.1l2.4-7.4l-10.7-4.1l-0.8-5.3
		l-5.3-0.6l-2.8-9.2l0,0l7.6-6.3l1.4,1.9l5.4-1.4l3.1-5.6l2,1.6l4.2-2.4l4.5-9.6l4-0.5l5.5,3.9l5.5-2.6l3.2,2.1l-1.1-6.3
		L316.2,374.1z"/>
</g>
</svg>
